<svg width="45" height="45" viewBox="0 0 45 45" fill="none" xmlns="http://www.w3.org/2000/svg">
<path d="M39.375 39.375L31.2319 31.2319M31.2319 31.2319C32.6248 29.839 33.7297 28.1854 34.4836 26.3654C35.2374 24.5455 35.6254 22.5949 35.6254 20.625C35.6254 18.6551 35.2374 16.7046 34.4836 14.8846C33.7297 13.0647 32.6248 11.4111 31.2319 10.0181C29.839 8.62523 28.1854 7.52031 26.3654 6.76647C24.5455 6.01263 22.5949 5.62463 20.625 5.62463C18.6551 5.62463 16.7046 6.01263 14.8846 6.76647C13.0647 7.52031 11.4111 8.62523 10.0181 10.0181C7.20503 12.8313 5.62463 16.6467 5.62463 20.625C5.62463 24.6034 7.20503 28.4188 10.0181 31.2319C12.8313 34.045 16.6467 35.6254 20.625 35.6254C24.6034 35.6254 28.4188 34.045 31.2319 31.2319Z" stroke="#40017F" stroke-width="4" stroke-linecap="round" stroke-linejoin="round"/>
</svg>
